<svg width="34" height="32" viewBox="0 0 34 32" fill="none" xmlns="http://www.w3.org/2000/svg">
<path d="M29.2163 14.9338C26.9144 14.9557 25.0305 13.1074 25.0086 10.8054C24.9867 8.50345 26.835 6.61957 29.137 6.59766C31.4389 6.57575 33.3228 8.42409 33.3447 10.7261C33.3666 13.028 31.5183 14.9119 29.2163 14.9338Z" fill="black"/>
<path d="M21.6503 8.33633C19.3484 8.35824 17.4645 6.50989 17.4426 4.20793C17.4207 1.90597 19.269 0.0221049 21.571 0.000192828C23.8729 -0.0217192 25.7568 1.82662 25.7787 4.12858C25.8006 6.43054 23.9523 8.31441 21.6503 8.33633Z" fill="black"/>
<path d="M11.647 8.43153C9.34502 8.45344 7.46115 6.6051 7.43923 4.30314C7.41732 2.00118 9.26567 0.117307 11.5676 0.0953949C13.8696 0.0734828 15.7535 1.92183 15.7754 4.22379C15.7973 6.52575 13.9489 8.40962 11.647 8.43153Z" fill="black"/>
<path d="M4.20793 15.1719C1.90597 15.1938 0.0221049 13.3454 0.000192828 11.0435C-0.0217192 8.74151 1.82662 6.85764 4.12858 6.83572C6.43054 6.81381 8.31441 8.66216 8.33633 10.9641C8.35824 13.2661 6.50989 15.1499 4.20793 15.1719Z" fill="black"/>
<path d="M7.85449 19.9058C9.28879 18.1915 10.4921 16.7294 11.943 15.0149C12.7014 14.1073 13.6765 13.1976 14.8397 12.7864C15.0225 12.7179 15.2054 12.6662 15.3885 12.6311C15.8047 12.5604 16.2548 12.5561 16.6883 12.552C17.1218 12.5479 17.5719 12.5436 18.0062 12.6228C18.1899 12.6544 18.3738 12.7027 18.5578 12.7676C19.7287 13.1567 20.7042 14.0478 21.4964 14.9406C22.9631 16.6274 24.194 18.0663 25.6773 19.7529C27.8822 21.9161 30.5894 24.3081 30.1215 27.6973C29.6541 29.4025 28.4531 31.098 26.2736 31.6022C25.0589 31.8639 21.1649 30.9172 17.0302 30.9566L16.7301 30.9594C12.5954 30.9988 8.71996 32.0028 7.50066 31.7809C5.312 31.3182 4.07873 29.6293 3.57921 27.95C3.02999 24.5537 5.69122 22.1107 7.85449 19.9058Z" fill="black"/>
</svg>
